Coordinates
version=1
nRows=10
nColumns=22
inDegrees=yes

Units are S.I. units (second, meters, Newtons, ...)
If the header above contains a line with 'inDegrees', this indicates whether rotational values are in degrees (yes) or radians (no).

endheader
time	pelvis_tilt	pelvis_list	pelvis_rotation	pelvis_tx	pelvis_ty	pelvis_tz	hip_flexion_r	hip_adduction_r	hip_rotation_r	knee_angle_r	ankle_angle_r	subtalar_angle_r	hip_flexion_l	hip_adduction_l	hip_rotation_l	knee_angle_l	ankle_angle_l	subtalar_angle_l	lumbar_extension	lumbar_bending	lumbar_rotation
      2.71000000	    -10.34563703	      0.16500282	     -5.76032292	      0.15847086	      0.96277782	      0.28957548	     16.96571006	     -0.46543471	     -2.56238506	    -59.55515009	      2.15249807	      8.16396879	     32.57938603	      3.06544171	     -5.78384915	    -30.82994496	     14.83320223	     -2.98988976	      0.79477337	      0.86560194	      7.17532778
      2.72000000	    -10.24604292	      0.61942455	     -5.56638337	      0.16642328	      0.96337074	      0.28850935	     18.29852026	     -1.36579225	     -2.65611084	    -61.36364454	      2.27288938	      7.63053875	     31.81107013	      3.71567900	     -5.91234421	    -30.43783320	     15.15392409	     -3.07943758	      0.65151027	      0.37710070	      6.66080965
      2.73000000	    -10.13238624	      0.99900041	     -5.39756691	      0.17428811	      0.96402448	      0.28752857	     19.59356639	     -2.13977464	     -2.65986149	    -62.91976347	      2.49228048	      6.63484257	     31.01168808	      4.29186696	     -5.97063472	    -30.02391187	     15.53572365	     -3.25372799	      0.48265952	     -0.02087477	      6.19821761
      2.74000000	    -10.00134465	      1.32747923	     -5.19946281	      0.18205255	      0.96472128	      0.28654782	     20.84593974	     -2.84137548	     -2.62862232	    -64.23323698	      2.88616340	      5.90251448	     30.21197002	      4.82422579	     -6.00767812	    -29.64298903	     15.86298286	     -3.34567816	      0.28155034	     -0.36072848	      5.69574271
      2.75000000	     -9.87090185	      1.56815531	     -4.99978286	      0.18976395	      0.96548482	      0.28564927	     22.04814640	     -3.39559124	     -2.53874798	    -65.26281079	      3.39672003	      5.00983534	     29.39182076	      5.27573389	     -5.94725486	    -29.23863726	     16.20658078	     -3.44941209	      0.08107277	     -0.59900305	      5.19344961
      2.76000000	     -9.75366052	      1.75878995	     -4.76694338	      0.19738090	      0.96625665	      0.28476124	     23.22562681	     -3.86403485	     -2.41883080	    -66.03798030	      4.03567495	      4.45124385	     28.59421063	      5.68109564	     -5.85005527	    -28.85108905	     16.49312064	     -3.48465685	     -0.11009859	     -0.77834513	      4.64622484
      2.77000000	     -9.62453511	      1.88075507	     -4.55194891	      0.20492296	      0.96705897	      0.28399641	     24.35115189	     -4.20486208	     -2.25611438	    -66.55279371	      4.64225588	      3.52688839	     27.78376423	      6.00179177	     -5.72248087	    -28.47845026	     16.86340264	     -3.57411316	     -0.31988881	     -0.88552148	      4.15281166
      2.78000000	     -9.51909920	      1.94524517	     -4.31126884	      0.21239894	      0.96783782	      0.28326659	     25.44832305	     -4.44513131	     -2.07721883	    -66.81131699	      5.39721278	      2.83842427	     27.00142443	      6.26103625	     -5.56159242	    -28.11790013	     17.19575706	     -3.61469022	     -0.50177852	     -0.92585259	      3.62540437
      2.79000000	     -9.43651600	      1.98326796	     -4.05678399	      0.21982496	      0.96858260	      0.28257713	     26.52720833	     -4.62126680	     -1.87584485	    -66.83349068	      6.22419909	      2.33270086	     26.23303768	      6.49147097	     -5.35667107	    -27.73933228	     17.50342343	     -3.62899980	     -0.65223497	     -0.93803515	      3.10929752
      2.80000000	     -9.35227305	      1.98189768	     -3.81575256	      0.22717746	      0.96928578	      0.28198916	     27.56533096	     -4.71190020	     -1.65256018	    -66.62986456	      7.07695704	      1.68837645	     25.47946104	      6.65889200	     -5.17261148	    -27.39491125	     17.86657777	     -3.67020099	     -0.81066800	     -0.90991525	      2.61800775
